<?xml version="1.0" encoding="UTF-8"?>
<svg id="Layer_1" xmlns="http://www.w3.org/2000/svg" version="1.1" viewBox="0 0 512 512">
  <!-- Generator: Adobe Illustrator 29.2.1, SVG Export Plug-In . SVG Version: 2.1.0 Build 116)  -->
  <defs>
    <style>
      .st0 {
        fill: #fff;
      }
    </style>
  </defs>
  <path d="M256,50.5c-95,0-204,23.4-204,205.5s109,205.5,204,205.5,204-23.4,204-205.5S351,50.5,256,50.5Z"/>
  <path class="st0" d="M367.2,174.9c-4.5-4.5-10.4-6.9-16.7-6.9s-12.2,2.5-16.7,6.9l-116.1,116.1-39.5-39.5c-4.5-4.5-10.4-6.9-16.7-6.9s-12.2,2.5-16.7,6.9c-9.2,9.2-9.2,24.2,0,33.4l49.5,49.4c6.3,6.3,14.6,9.7,23.4,9.7h0c8.9,0,17.2-3.5,23.4-9.7l126.1-126c9.2-9.2,9.2-24.2,0-33.4Z"/>
</svg>