<?xml version="1.0" encoding="UTF-8"?>
<svg id="Layer_1" data-name="Layer 1" xmlns="http://www.w3.org/2000/svg" viewBox="0 0 512 512">
  <defs>
    <style>
      .cls-1 {
        fill: #fff;
      }
    </style>
  </defs>
  <path class="cls-1" d="M64,245.89V64h384v384H64v-110.78c1.69,5.61,10.02,7.51,13.49,2.63,6.54-9.19-8.12-17.41-13.49-7.13v-82.34c1.17,1.86,4.99,5.24,7.11,5.24h77.47l-3.75,28.44c-1.18,1.23-28.97-.72-34,.05-8.5,1.3-8.51,13.57,0,14.87,5.14.79,33.53-1.18,34.76.04.06,9.62,1.76,19.26,4.49,28.45h-49.03c-.46,0-3.87,1.72-4.51,2.23-4.57,3.62-2.9,10.8,2.42,12.59l55.64.5c13.07,33.65,37.33,61.89,69.08,79.13,45.1,24.48,100.85,24.65,145.74-.49,4.28-2.4,11.55-5.68,12.41-10.86.72-4.31-3.32-8.33-7.56-8.32-3.56,0-14.22,7.3-18.43,9.34-78.55,38.09-174.08-7.18-192.67-92.35-21.54-98.68,65.07-184.66,163.57-162.82,84.92,18.83,129.61,113.83,91.96,192.28-2.29,4.77-10.25,15.74-9.48,20.12.84,4.82,6.6,6.99,10.9,5.24,3.61-1.47,12.6-19.91,14.54-24.38,37.96-87.27-13.37-187.99-105.64-207.88l.05-19.35c28.59-7.99,24.14-47.92-5.67-50.26-12.18-.96-50.47-1.54-61.04,1.14-25.2,6.4-24.75,43.5.68,49.11v19.31c-34.32,7.02-64.96,27.38-86.5,54.6l-53.05.09c-7.08-.35-11.59,8.26-6.11,13.27.29.26,2.96,1.73,3.14,1.73h45.29l-13.22,29.23-82.24-.05c-3.42.12-4.92,2.6-6.35,5.26ZM213.97,371.39c56.47,56.24,151.51,39.81,186.41-31.27,44.92-91.48-42.12-191.87-139.34-161.79-82.65,25.57-108.55,131.83-47.07,193.06ZM395.38,383.79c-8.43,1.93-6.12,17.37,5.5,13.72,7.03-2.21,5.55-16.25-5.5-13.72Z"/>
  <path d="M64,245.89c1.43-2.66,2.92-5.14,6.35-5.26l82.24.05,13.22-29.23h-45.29c-.18,0-2.85-1.46-3.14-1.73-5.49-5.01-.97-13.63,6.11-13.27l53.05-.09c21.55-27.22,52.19-47.58,86.5-54.6v-19.31c-25.42-5.61-25.87-42.71-.68-49.11,10.56-2.68,48.86-2.1,61.04-1.14,29.81,2.35,34.27,42.28,5.67,50.26l-.05,19.35c92.27,19.89,143.6,120.61,105.64,207.88-1.94,4.46-10.93,22.9-14.54,24.38-4.3,1.76-10.06-.41-10.9-5.24-.76-4.38,7.19-15.36,9.48-20.12,37.66-78.44-7.04-173.45-91.96-192.28-98.5-21.84-185.11,64.14-163.57,162.82,18.59,85.16,114.12,130.44,192.67,92.35,4.21-2.04,14.87-9.33,18.43-9.34,4.24-.01,8.28,4.01,7.56,8.32-.86,5.17-8.13,8.46-12.41,10.86-44.88,25.14-100.63,24.97-145.74.49-31.76-17.24-56.02-45.48-69.08-79.13l-55.64-.5c-5.32-1.78-6.99-8.97-2.42-12.59.64-.51,4.05-2.23,4.51-2.23h49.03c-2.73-9.19-4.43-18.83-4.49-28.45-1.23-1.22-29.62.74-34.76-.04-8.51-1.3-8.5-13.57,0-14.87,5.03-.77,32.83,1.17,34-.05l3.75-28.44h-77.47c-2.12,0-5.94-3.38-7.11-5.24v-4.49ZM268.17,87.4c-12.03,1.76-13.15,17.34-1.52,20.59,17.91-1.45,40.82,2.57,58.14.11,10.97-1.56,11.99-18.72-.88-20.7-17.26,1.26-39.01-2.45-55.75,0ZM314.01,123.13h-35.93v15.72h35.93v-15.72Z"/>
  <path d="M64,337.22v-4.49c5.36-10.29,20.03-2.07,13.49,7.13-3.47,4.88-11.8,2.98-13.49-2.63Z"/>
  <path d="M213.97,371.39c-61.48-61.23-35.58-167.49,47.07-193.06,97.22-30.08,184.26,70.31,139.34,161.79-34.9,71.07-129.93,87.51-186.41,31.27ZM285.42,188.48c-47.47,4.01-87.24,45.73-90.42,92.98-5.84,86.96,93.93,141.58,163.1,87.49,79.73-62.35,29.36-189.09-72.68-180.47Z"/>
  <path d="M395.38,383.79c11.04-2.53,12.53,11.52,5.5,13.72-11.62,3.65-13.92-11.8-5.5-13.72Z"/>
  <path class="cls-1" d="M268.17,87.4c16.74-2.45,38.49,1.26,55.75,0,12.87,1.97,11.85,19.14.88,20.7-17.33,2.46-40.23-1.56-58.14-.11-11.63-3.25-10.51-18.83,1.52-20.59Z"/>
  <rect class="cls-1" x="278.08" y="123.13" width="35.93" height="15.72"/>
  <path class="cls-1" d="M285.42,188.48c102.04-8.62,152.41,118.12,72.68,180.47-69.17,54.09-168.94-.54-163.1-87.49,3.18-47.24,42.95-88.97,90.42-92.98ZM291.04,221.71c3.87,3.42,10.82,1.59,12.14-3.49,1.96-7.53.54-19.51-9.92-15.91-6.3,2.17-6.25,15.83-2.22,19.4ZM354.17,231.18c-2.7-2.64-7.23-2.85-10.19-.6-5.33,3.65-35.17,37.23-37.82,37.51-.87.09-5.18-1.82-7.47-2.02-4.9-.44-8.59.56-13.16,1.9-5.13-3.58-12.74-14.96-17.66-17.49-6.77-3.48-13.71,2.75-10.94,9.45,1.63,3.95,17.51,16.13,18,18.63-10.49,22.79,17.26,45.11,36.47,27.98,8.65-7.71,9.24-17.92,5.94-28.44l37.42-37.48c1.84-2.62,1.77-7.12-.6-9.44ZM228.42,294.29c3.38-3.43,1.98-10.7-2.7-12.13-3.16-.96-12.67-.96-15.02,1.52-9.55,10.08,10.42,18,17.72,10.61ZM366.94,281.98c-4.31.97-5.74,5.95-4.86,9.79,1.74,7.65,22.86,7.57,21.52-3.51-.87-7.25-11.2-7.5-16.66-6.28ZM295.81,354.68c-12.94.21-8.12,30.1,4.69,20.29,5.43-4.16,4.76-20.45-4.69-20.29Z"/>
  <path d="M354.17,231.18c2.37,2.32,2.44,6.81.6,9.44l-37.42,37.48c3.3,10.51,2.71,20.73-5.94,28.44-19.2,17.12-46.96-5.19-36.47-27.98-.49-2.5-16.36-14.68-18-18.63-2.77-6.69,4.17-12.93,10.94-9.45,4.92,2.53,12.53,13.91,17.66,17.49,4.57-1.33,8.26-2.33,13.16-1.9,2.29.2,6.6,2.12,7.47,2.02,2.65-.29,32.49-33.86,37.82-37.51,2.96-2.25,7.48-2.04,10.19.6ZM293.58,281.24c-9.03,2.08-6.91,17.33,3.39,16.17,11.16-1.25,8.98-19.02-3.39-16.17Z"/>
  <path d="M291.04,221.71c-4.03-3.56-4.08-17.22,2.22-19.4,10.46-3.61,11.88,8.37,9.92,15.91-1.32,5.08-8.27,6.91-12.14,3.49Z"/>
  <path d="M366.94,281.98c5.46-1.22,15.79-.98,16.66,6.28,1.33,11.08-19.78,11.16-21.52,3.51-.87-3.84.55-8.82,4.86-9.79Z"/>
  <path d="M295.81,354.68c9.45-.15,10.11,16.14,4.69,20.29-12.8,9.81-17.62-20.09-4.69-20.29Z"/>
  <path d="M228.42,294.29c-7.3,7.39-27.27-.52-17.72-10.61,2.35-2.49,11.87-2.49,15.02-1.52,4.68,1.43,6.08,8.71,2.7,12.13Z"/>
  <path class="cls-1" d="M293.58,281.24c12.36-2.85,14.55,14.92,3.39,16.17-10.3,1.16-12.42-14.09-3.39-16.17Z"/>
</svg>