<?xml version="1.0" encoding="UTF-8"?>
<svg id="Layer_1" data-name="Layer 1" xmlns="http://www.w3.org/2000/svg" viewBox="0 0 512 512">
  <defs>
    <style>
      .cls-1 {
        fill: #fff;
      }
    </style>
  </defs>
  <path class="cls-1" d="M7,488.65V7h498.16v498.16h-.97v-16.51h-89.34l-5.78-65.02c18.44-1.78,36.54-17.05,43.14-34.05.52-1.33,3.42-10.56,3.42-11.15v-114.1h-32.05v-16.99c0-6.45-9.29-16.07-14.57-19.45,6.65-8.23,13.26-17.32,14.47-28.23,2.63-23.72.49-50.04-21.55-63.7-33.07-20.48-71.54,1.95-74.47,39.53-2.12,27.23,5.15,51.48,32.03,62.13l-42.74,42.71-45.63.51c-1.3-29.48-33.12-31.37-55.25-37.97-.48-.56-.32-13.32.1-14.76.51-1.72,3.78-3.78,5.06-5.62,24.72-35.45,8.27-98.99-42.64-94.1-40.65,3.9-54.3,55.71-36.93,87.41,1.8,3.29,9.66,12.1,10.01,13.29.5,1.7.54,11.78-.25,12.95-18.12,8.04-43.9,6.54-53.15,27.45-.51,1.15-2.73,7.35-2.73,7.96v35.44h-32.05v47.58h15.54v128.18H7ZM391.55,7.97h-192.27v79.14l1.46,1.46h54.87v48.55l58.75-48.55h77.2V7.97Z"/>
  <path d="M7,488.65h71.86v-128.18h-15.54v-47.58h32.05v-35.44c0-.61,2.21-6.8,2.73-7.96,9.25-20.9,35.03-19.41,53.15-27.45.79-1.18.75-11.25.25-12.95-.35-1.19-8.21-10-10.01-13.29-17.37-31.69-3.73-83.5,36.93-87.41,50.9-4.89,67.35,58.66,42.64,94.1-1.28,1.84-4.55,3.9-5.06,5.62-.43,1.44-.58,14.2-.1,14.76,22.13,6.61,53.95,8.49,55.25,37.97l45.63-.51,42.74-42.71c-26.88-10.65-34.15-34.91-32.03-62.13,2.93-37.58,41.4-60.02,74.47-39.53,22.04,13.66,24.18,39.97,21.55,63.7-1.21,10.91-7.82,20.01-14.47,28.23,5.27,3.38,14.57,13,14.57,19.45v16.99h32.05v114.1c0,.58-2.9,9.82-3.42,11.15-6.6,17.01-24.7,32.27-43.14,34.05l5.78,65.02h89.34v16.51H7v-16.51ZM183.41,144.3c-29.94.34-34.79,29.41-31.64,53.44,1.93,14.69,16.82,26.82,31.48,26.87,44.76.16,43.96-80.81.16-80.31ZM375.69,144.3c-29.37.35-34.38,28.79-31.62,52.44,3.74,32.08,50.08,37.97,61.54,7.37,8.84-23.6.64-60.17-29.92-59.81ZM199.27,238.12c-10.68,2.88-21.33,2.62-32.04,0-2.75,24,34.96,24.24,32.04,0ZM379.64,241.27c-1.57.41-3.77,2.52-5.11,3.62-17.64,14.52-33.41,35.86-50.98,50.99l-75.16.59c-11.49.99-11.47,15.26-.11,16.45l84-.53,58.75-58.75c2.68-8.33-2.73-14.62-11.4-12.37ZM319.69,376.98h67.49c8.09,0,20.88-12.73,20.88-20.88v-102.45l-7.27,13.61-56.32,56.33-.5,36.88h-24.28v16.51ZM110.91,282.3c-1.16,9.41.86,20.94,0,30.59h113.62c-5.11-20.01,10.14-35.04,30.11-32.05-1.87-18.42-29.47-16.24-42.67-22.89l-1.53.46c-13.38,16.21-31.69,18.73-48.51,5.89-3.67-2.8-3.91-6.37-9.49-5.6-4.79.66-29.64,8.03-33.47,10.29-4.59,2.71-7.41,8.14-8.05,13.31ZM440.1,280.84h-16.51v80.11c0,11.42-20.99,31.56-32.53,31.56h-71.37v16.51h84c16.42,0,36.42-19.94,36.42-36.42v-91.77ZM327.46,328.43H80.32l-1.46,1.46v15.05h248.6v-16.51ZM135.18,376.98h167.51c2.92-3.7,1.04-10.25,1.3-14.9l-1.3-1.61H95.37v16.51h24.28v15.54h-24.28v96.14h19.42l16.18-31.89,134.88-.21,3.24,1.61,14.67,30.49h20.39v-94.68l-1.46-1.46h-167.51v-15.54ZM360.47,424.56h-40.79v64.09h47.58l-6.8-64.09ZM392.52,424.56h-15.54l5.83,64.09h16.51l-6.8-64.09ZM266.28,488.65c-2.31-3.1-5.81-14.91-9.22-15.54l-114.65-.05c-4.99.6-7.16,11.61-10.14,15.59h134.01Z"/>
  <path d="M391.55,7.97v80.6h-77.2l-58.75,48.55v-48.55h-54.87l-1.46-1.46V7.97h192.27ZM376.01,24.48h-160.23v47.58h56.32v30.1l36.42-30.1h67.49V24.48Z"/>
  <path class="cls-1" d="M135.18,376.98v15.54h167.51l1.46,1.46v94.68h-20.39l-14.67-30.49-3.24-1.61-134.88.21-16.18,31.89h-19.42v-96.14h24.28v-15.54h-24.28v-16.51h207.32l1.3,1.61c-.26,4.65,1.61,11.2-1.3,14.9h-167.51Z"/>
  <path class="cls-1" d="M110.91,282.3c.64-5.17,3.47-10.6,8.05-13.31,3.83-2.26,28.68-9.62,33.47-10.29,5.58-.77,5.81,2.8,9.49,5.6,16.82,12.84,35.13,10.32,48.51-5.89l1.53-.46c13.2,6.64,40.8,4.46,42.67,22.89-19.96-2.99-35.21,12.04-30.11,32.05h-113.62c.86-9.65-1.16-21.18,0-30.59Z"/>
  <path class="cls-1" d="M319.69,376.98v-16.51h24.28l.5-36.88,56.32-56.33,7.27-13.61v102.45c0,8.15-12.79,20.88-20.88,20.88h-67.49Z"/>
  <path class="cls-1" d="M375.69,144.3c30.57-.36,38.76,36.22,29.92,59.81-11.46,30.6-57.8,24.71-61.54-7.37-2.76-23.65,2.25-52.1,31.62-52.44Z"/>
  <path class="cls-1" d="M183.41,144.3c43.8-.5,44.6,80.46-.16,80.31-14.66-.05-29.55-12.18-31.48-26.87-3.15-24.02,1.7-53.09,31.64-53.44Z"/>
  <polygon class="cls-1" points="327.46 328.43 327.46 344.93 78.86 344.93 78.86 329.88 80.32 328.43 327.46 328.43"/>
  <path class="cls-1" d="M440.1,280.84v91.77c0,16.47-20,36.42-36.42,36.42h-84v-16.51h71.37c11.54,0,32.53-20.14,32.53-31.56v-80.11h16.51Z"/>
  <path class="cls-1" d="M379.64,241.27c8.67-2.26,14.07,4.04,11.4,12.37l-58.75,58.75-84,.53c-11.37-1.19-11.38-15.46.11-16.45l75.16-.59c17.57-15.12,33.34-36.46,50.98-50.99,1.34-1.1,3.54-3.21,5.11-3.62Z"/>
  <polygon class="cls-1" points="360.47 424.56 367.27 488.65 319.69 488.65 319.69 424.56 360.47 424.56"/>
  <path class="cls-1" d="M266.28,488.65h-134.01c2.98-3.98,5.15-14.99,10.14-15.59l114.65.05c3.42.63,6.91,12.44,9.22,15.54Z"/>
  <polygon class="cls-1" points="392.52 424.56 399.31 488.65 382.81 488.65 376.98 424.56 392.52 424.56"/>
  <path class="cls-1" d="M199.27,238.12c2.93,24.24-34.78,23.99-32.04,0,10.71,2.63,21.35,2.89,32.04,0Z"/>
  <path class="cls-1" d="M376.01,24.48v47.58h-67.49l-36.42,30.1v-30.1h-56.32V24.48h160.23ZM247.83,40.02h-16.51v15.05c3.7,2.92,10.25,1.04,14.9,1.3l1.61-1.3v-15.05ZM327.46,40.02h-64.09v15.05l1.46,1.46h62.63v-16.51ZM359.5,40.02h-15.54v16.51h15.54v-16.51Z"/>
  <polygon points="327.46 40.02 327.46 56.52 264.82 56.52 263.36 55.07 263.36 40.02 327.46 40.02"/>
  <path d="M247.83,40.02v15.05l-1.61,1.3c-4.65-.26-11.2,1.61-14.9-1.3v-15.05h16.51Z"/>
  <rect x="343.96" y="40.02" width="15.54" height="16.51"/>
</svg>