<?xml version="1.0" encoding="UTF-8"?>
<svg id="Layer_1" xmlns="http://www.w3.org/2000/svg" version="1.1" viewBox="0 0 512 512">
  <!-- Generator: Adobe Illustrator 29.2.1, SVG Export Plug-In . SVG Version: 2.1.0 Build 116)  -->
  <g>
    <path d="M256,50.5c-95,0-204,23.4-204,205.5s109,205.5,204,205.5,204-23.4,204-205.5S351,50.5,256,50.5ZM256,424.1c-100,0-166.6-28.6-166.6-168.1s66.6-168.1,166.6-168.1,166.6,28.6,166.6,168.1-66.6,168.1-166.6,168.1Z"/>
    <path d="M256,152.5c-10.3,0-18.7,8.4-18.7,18.7v105.9c0,10.3,8.4,18.7,18.7,18.7s18.7-8.4,18.7-18.7v-105.9c0-10.3-8.4-18.7-18.7-18.7Z"/>
  </g>
  <path d="M256,317.4c-9.6,0-17.3,7.7-17.3,17.3s7.7,17.3,17.3,17.3,17.3-7.7,17.3-17.3-7.7-17.3-17.3-17.3Z"/>
</svg>