<?xml version="1.0" encoding="UTF-8"?>
<svg id="Layer_1" data-name="Layer 1" xmlns="http://www.w3.org/2000/svg" viewBox="0 0 512 512">
  <defs>
    <style>
      .cls-1 {
        fill: #fff;
      }
    </style>
  </defs>
  <path class="cls-1" d="M460.6,356v104.6H51V51h409.6v195.62c-1.09-5.17-7.7-12.78-13.17-12.78h-115.37v-13.97c0-11.21-10.95-21.23-21.96-21.23s-21.96,10.02-21.96,21.23v13.97h-115.37c-7.2,0-12.64,9.02-13.2,15.54-2.89,33.36,2.22,70.83.03,104.63-.26,4.79,7.15,13.97,11.58,13.97h22.36l1.2,1.2v41.92h-82.24v-207.99l137.59-91.3,136.27,90.5c3.16,3.76-3.9,26.47,9.02,22.58,4.78-1.44,3.76-9.58,3.76-13.4,7.79,2.95,16.46,12.79,24.54,14.18,21.6,3.7,32.58-22.52,15.76-35.72l-183.61-122.2c-3.21-1.9-7.67-2.38-11.07-.66l-104.52,70.34c-2.42,5.42,3.24,10.74,8.46,7.66l101.4-66.78,182.85,121.32c7.64,7.19-.51,18.24-9.51,13.49l-167.29-111.36c-2.86-1.71-6.3-2.74-9.56-1.67l-170.54,112.9c-7.86,4.78-16.35-4.87-10.56-12.15l53.41-36.02c4.68-5.08-.56-12.56-7-9.39-15.59,12.18-36.17,21.82-51.25,34.17-20.56,16.84-1.48,45.97,22.53,32.91,5.94-3.23,11.02-8.35,17.32-11.02v199.61h-24.35c-3.75,0-9.71,4.17-11.99,7.17-8.01,10.49-2.24,25.33,10.47,27.89l348.08.1c17.31-.89,22.71-24.44,7.18-32.8-.98-.53-5.74-2.37-6.41-2.37h-24.35v-29.94c0-.36-2.19-3.31-2.74-3.64-3.56-2.17-9.24.65-9.24,4.44v29.14h-55.09v-43.12h116.97c4.33,0,10.3-8.06,11.58-11.98ZM248.07,137.45c-32.68,1.47-47.37,43.02-22.59,64.43,27.49,23.75,69.11-2.06,59.68-37.33-4.37-16.36-20.18-27.87-37.09-27.11Z"/>
  <path d="M460.6,356c-1.27,3.91-7.25,11.98-11.58,11.98h-116.97v43.12h55.09v-29.14c0-3.79,5.68-6.61,9.24-4.44.54.33,2.74,3.28,2.74,3.64v29.94h24.35c.68,0,5.43,1.84,6.41,2.37,15.53,8.35,10.14,31.91-7.18,32.8l-348.08-.1c-12.71-2.56-18.47-17.41-10.47-27.89,2.29-3,8.25-7.17,11.99-7.17h24.35v-199.61c-6.3,2.67-11.39,7.79-17.32,11.02-24.01,13.06-43.09-16.07-22.53-32.91,15.08-12.35,35.67-21.99,51.25-34.17,6.45-3.17,11.68,4.31,7,9.39l-53.41,36.02c-5.79,7.27,2.7,16.92,10.56,12.15l170.54-112.9c3.26-1.07,6.7-.04,9.56,1.67l167.29,111.36c9,4.75,17.15-6.3,9.51-13.49l-182.85-121.32-101.4,66.78c-5.22,3.08-10.88-2.24-8.46-7.66l104.52-70.34c3.4-1.72,7.86-1.24,11.07.66l183.61,122.2c16.82,13.21,5.83,39.42-15.76,35.72-8.08-1.38-16.75-11.23-24.54-14.18,0,3.82,1.02,11.96-3.76,13.4-12.93,3.89-5.87-18.82-9.02-22.58l-136.27-90.5-137.59,91.3v207.99h82.24v-41.92l-1.2-1.2h-22.36c-4.43,0-11.84-9.18-11.58-13.97,2.2-33.79-2.92-71.27-.03-104.63.56-6.52,6.01-15.54,13.2-15.54h115.37v-13.97c0-11.21,10.95-21.23,21.96-21.23s21.96,10.02,21.96,21.23v13.97h115.37c5.48,0,12.08,7.61,13.17,12.78v109.39ZM320.07,233.84v-15.57c0-1.05-3.6-5.59-4.83-6.35-3.01-1.87-7.3-1.87-10.3,0-1.23.76-4.83,5.3-4.83,6.35v15.57h19.96ZM447.64,355.81c.9-1.24.9-2.71,1.02-4.17,2.65-32.53-2.09-68.58.01-101.48.13-1.76-.36-3.64-2.2-4.18l-273.31.23-1.43,1.76.37,107.05,1.25,1.25,274.29-.46ZM288.14,367.98h-81.04l-1.2,1.2v41.92h82.24v-43.12ZM320.07,435.05v-65.87l-1.2-1.2h-17.57l-1.2,1.2v65.87h19.96ZM288.14,423.07H76.15c-4.7,0-5.28,11.98,1.6,11.98h210.39v-11.98ZM423.47,423.07h-91.42v11.98h89.82c6.1,0,7.14-10.72,1.6-11.98Z"/>
  <path d="M248.07,137.45c16.91-.76,32.72,10.75,37.09,27.11,9.42,35.27-32.2,61.08-59.68,37.33-24.78-21.42-10.09-62.96,22.59-64.43ZM244.22,150.01c-9.5,1.61-16.47,9.45-19.16,18.36h19.16v-18.36ZM255.4,150.01v18.36h18.36c-1.21-9.1-9.65-16.66-18.36-18.36ZM244.22,180.35h-18.36c1.11,8.93,9.85,16.44,18.36,18.36v-18.36ZM273.76,180.35h-18.36v18.36c8.66-1.95,16.98-9.32,18.36-18.36Z"/>
  <path class="cls-1" d="M447.64,355.81l-274.29.46-1.25-1.25-.37-107.05,1.43-1.76,273.31-.23c1.85.54,2.33,2.42,2.2,4.18-2.1,32.91,2.63,68.95-.01,101.48-.12,1.46-.12,2.93-1.02,4.17ZM235.25,269.98c-10.9,1.5-17.55,9.47-15.42,20.6,2.66,13.88,24.33,13.78,26.47,23.06,1.97,8.56-8.21,10.66-14.62,8.2-4.28-1.64-8.53-8.65-12.59-3.36-6.1,7.95,9.27,13.72,15.26,14.26,15.96,1.45,27.82-9.84,21.91-25.89-4.04-10.97-23.72-13.53-25.44-19.29-2.42-8.1,8.04-8.99,13.63-8.02,3.89.67,7.38,5.32,10.52.56,6.58-9.95-13.97-10.91-19.7-10.13ZM299.5,331.07c2.57,2.64,11.33-.17,10.06-4.79l-16.47-53.08c-1.94-4.45-10.08-4.65-12.96-1.45l-17.42,56.53c2.01,3.65,7.04,5.28,10.26,2.38l3.27-12.1,19.39-.13,3.86,12.64ZM328.06,322.47v-49.9c-2.53-3.22-6.46-2.55-9.87-1.27-.69.49-.95,2.17-1.08,3.05-1.62,10.46-1.28,40.71-.26,51.75.36,3.89,1.08,5.48,5.21,5.97,3.61.43,25.19.59,27.8-.18,3.79-1.11,2.22-9.42.16-9.42h-21.96ZM371.17,280.15h23.55c3.69,0,6.17-8.82-.17-10.21-4.26-.93-23.7-.72-28.57-.17-1.66.19-4.83.83-5.6,2.38l-.43,56.35c-.13,2.35,1.62,3.18,3.69,3.49,9.47,1.45,22.06-.96,31.88.05,3.79-.69,3.52-7.62.8-9.58h-25.15v-16.77h12.38c4.3,0,4.53-8.78,1.6-8.78h-13.97v-16.77Z"/>
  <polygon class="cls-1" points="288.14 367.98 288.14 411.1 205.9 411.1 205.9 369.18 207.1 367.98 288.14 367.98"/>
  <path class="cls-1" d="M288.14,423.07v11.98H77.75c-6.88,0-6.3-11.98-1.6-11.98h211.99Z"/>
  <polygon class="cls-1" points="320.07 435.05 300.11 435.05 300.11 369.18 301.31 367.98 318.88 367.98 320.07 369.18 320.07 435.05"/>
  <path class="cls-1" d="M423.47,423.07c5.54,1.25,4.5,11.98-1.6,11.98h-89.82v-11.98h91.42Z"/>
  <path class="cls-1" d="M320.07,233.84h-19.96v-15.57c0-1.05,3.6-5.59,4.83-6.35,3.01-1.87,7.3-1.87,10.3,0,1.23.76,4.83,5.3,4.83,6.35v15.57Z"/>
  <path class="cls-1" d="M244.22,150.01v18.36h-19.16c2.69-8.91,9.66-16.75,19.16-18.36Z"/>
  <path class="cls-1" d="M255.4,150.01c8.71,1.7,17.15,9.26,18.36,18.36h-18.36v-18.36Z"/>
  <path class="cls-1" d="M244.22,180.35v18.36c-8.51-1.92-17.26-9.43-18.36-18.36h18.36Z"/>
  <path class="cls-1" d="M273.76,180.35c-1.39,9.04-9.7,16.42-18.36,18.36v-18.36h18.36Z"/>
  <path d="M299.5,331.07l-3.86-12.64-19.39.13-3.27,12.1c-3.23,2.9-8.25,1.28-10.26-2.38l17.42-56.53c2.88-3.2,11.03-2.99,12.96,1.45l16.47,53.08c1.26,4.61-7.5,7.42-10.06,4.79ZM292.93,309.69l-6.79-24.76-7.59,24.76h14.37Z"/>
  <path d="M371.17,280.15v16.77h13.97c2.94,0,2.7,8.78-1.6,8.78h-12.38v16.77h25.15c2.72,1.96,2.99,8.89-.8,9.58-9.83-1.02-22.42,1.4-31.88-.05-2.07-.32-3.82-1.14-3.69-3.49l.43-56.35c.77-1.56,3.95-2.2,5.6-2.38,4.87-.55,24.31-.76,28.57.17,6.34,1.39,3.86,10.21.17,10.21h-23.55Z"/>
  <path d="M235.25,269.98c5.73-.79,26.28.18,19.7,10.13-3.14,4.76-6.63.11-10.52-.56-5.59-.97-16.05-.08-13.63,8.02,1.72,5.76,21.4,8.32,25.44,19.29,5.91,16.05-5.95,27.34-21.91,25.89-5.99-.54-21.35-6.32-15.26-14.26,4.06-5.29,8.31,1.72,12.59,3.36,6.41,2.46,16.59.35,14.62-8.2-2.14-9.28-23.81-9.18-26.47-23.06-2.13-11.13,4.52-19.11,15.42-20.6Z"/>
  <path d="M328.06,322.47h21.96c2.06,0,3.63,8.31-.16,9.42-2.61.76-24.19.6-27.8.18-4.13-.49-4.85-2.08-5.21-5.97-1.01-11.04-1.36-41.29.26-51.75.14-.88.39-2.57,1.08-3.05,3.41-1.28,7.35-1.95,9.87,1.27v49.9Z"/>
  <polygon class="cls-1" points="292.93 309.69 278.56 309.69 286.14 284.93 292.93 309.69"/>
</svg>