<?xml version="1.0" encoding="UTF-8"?>
<svg id="Layer_1" data-name="Layer 1" xmlns="http://www.w3.org/2000/svg" viewBox="0 0 512 512">
  <g id="house">
    <path d="M262,0c6.39,2.09,12.19,4.79,17.48,9.02l87.52,73.98v-36.5c0-8.45,12.4-19.3,20.59-20.41s35.39-1.16,43.83,0c10.14,1.39,19.45,11.34,20.59,21.41l-.02,107.8,50.06,42.16c5.28,5.72,7.99,12.09,9.95,19.55v10c-4.16,19.78-22.77,33-43,28l-.06,166.55c.33,4.09,7.73,4.83,11.74,7.26,11.44,6.92,9.36,12.79,14.85,21.15,1.2,1.83,6.28,4.99,8.48,7.52,4.52,5.19,6.16,10.01,7.98,16.52v11c-3.59,13.87-12.4,22.76-26,27H63c-10.36-3.45-18.18-10.26-20-21.5v-235.5c-20.39,4.86-38.88-7.94-43-28v-11c2.47-7.54,5.3-13.82,10.98-19.52L238.97,4.47l11.03-4.47h12ZM252.74,17.24c-3.42.56-6.48,2.8-9.22,4.78L22.1,209.6c-13.19,13.99,1.4,35.08,18.89,27.89L244.5,66c8.41-5.62,14.58-5.63,23,0l198.59,168.41c17.19,14.29,39.04-7.87,23.81-24.81L269.48,23.02c-5.59-4.07-9.28-7.01-16.74-5.78ZM435,140V48.5c0-2.65-4.87-5.22-7.48-5.52-7.74-.9-28.3-.9-36.04,0-4.6.53-6.96,2.87-7.5,7.5-1.14,9.86-1.01,34.05-.04,44.08.16,1.69-.05,3.3,1.48,4.52l49.58,40.92ZM452,416v-171.5l-195.01-165.06h-1.99L60.16,244.66l-.21,241.88c-1.2,3.29,4.14,8.45,6.55,8.45h121.5v-201.5c0-.67,1.93-5.43,2.45-6.55,4.19-8.94,13.5-13.31,23.01-13.99,28.61-2.06,59.9,1.41,88.78.3,8.48.2,21.76,11.9,21.76,20.24v201.5h38c-5.96-13.55-4.36-30.27,6.98-40.52,3.72-3.36,8.79-4.45,11.99-7.01,2.5-2,4.44-5.96,7.56-8.44s9.11-4.22,10.47-5.53c1.09-1.06,3.33-7.25,5.18-9.82,10.91-15.17,32.73-18.38,47.83-7.67ZM205,295.5v199.5h102v-199.5c0-1.9-6.09-6.03-8.48-5.53-27.06,1.93-57.42-2.47-84.07-.03-3.26.3-8.66,2.06-9.45,5.55ZM427.72,427.23c-2.37.5-7.54,3.93-9.16,5.83-3.53,4.13-3.89,12.43-7.02,14.98-2.84,2.31-8,1.6-11.46,3.54-4.28,2.4-4.49,7.42-7.13,9.87-2.36,2.19-5.97,2.07-8.64,3.36-14.08,6.84-10.93,28.72,6.15,30.23,28.99,2.56,61.68-2.02,91.06-.02,12.69-2.22,17.94-17.65,9.02-27.07-2.88-3.05-9.11-4.09-10.99-8.01-2.92-6.1.43-11-7.62-16.38-8.86-5.91-12.36.9-18.48-1.49-5.42-2.11-6.63-9.74-12.1-12.93-3.77-2.2-9.38-2.81-13.63-1.92Z"/>
    <path d="M90.74,273.24c10.4-1.77,53.85-1.63,64.67-.15,9.99,1.36,14.81,8.87,15.62,18.38,2.52,29.36-1.94,62.28-.05,92.02-1.13,9.67-6.35,16.66-16.45,17.55-14.72,1.3-47.62,1.59-62.04-.04-7.93-.89-14.53-6.33-15.52-14.48-3.7-30.29,2.83-67.97,0-99.05,1.13-6.83,6.82-13.05,13.76-14.24ZM154,290h-60v94h60v-94Z"/>
    <path d="M355.74,273.24c10.5-1.76,53.81-1.64,64.67-.15,7.8,1.07,13.88,7.64,14.64,15.36,3.02,30.89-2.38,66.65-.03,98.07-1.53,8.3-7.1,13.53-15.52,14.48-13.62,1.53-49.38,1.53-63.01,0-9.93-1.11-14.73-9.1-15.53-18.47-2.52-29.36,1.94-62.28.05-92.02.66-8.53,6.01-15.82,14.73-17.27ZM418,290h-60v94h60v-94Z"/>
    <path d="M224.31,403.32c5.99-5.49,28.08-3.9,21.93,10.43-2.33,5.43-15.45,5.44-19.99,3.5-5.02-2.14-5.79-10.4-1.94-13.93Z"/>
  </g>
</svg>