<?xml version="1.0" encoding="UTF-8"?>
<svg id="Layer_1" data-name="Layer 1" xmlns="http://www.w3.org/2000/svg" viewBox="0 0 512 512">
  <defs>
    <style>
      .cls-1 {
        fill: #fff;
      }
    </style>
  </defs>
  <path class="cls-1" d="M133.61,448h-69.61V64h384v384h-68.12c.91-.79,3.74-3.04,3.74-4.12v-143.35h13.1c2.97,0,4.69-6.8,2.21-8.95-10.64-10.79-20.4-22.56-31.01-33.36-5.3-5.4-9.78-13.24-16.88-6.36-12.62,12.21-23.37,26.6-36.28,38.58-3.56,2.02-1.61,10.1,1.12,10.1h13.1v34.81c0,5.43,10.29,8.37,11.27.79l-.06-42.68c-1.01-3.79-5.14-3.85-8.21-4.51l23.93-25.48,1.85.44,23.61,25.05c-2.31-.04-8.98,1.7-8.98,4.49v143.35h-32.19v-81.22c0-.82-1.95-2.71-2.95-3.04-5.42-1.82-7.75,2-8.28,6.78,1.96,26.07-2.61,55.98,0,81.6.33,3.22,1.28,5.18,3.75,7.11h-52.4c.91-.79,3.74-3.04,3.74-4.12v-107.42h13.1c2.79,0,4.66-6.57,2.66-8.65-10.03-10.15-19.24-21.21-29.21-31.41-2.14-2.19-8.95-9.78-10.83-10.87-1.74-1.01-3.06-.99-4.95-.38l-39.63,41.21c-3.59,2.45-1.89,10.1,1.87,10.1h12.35v105.92c0,1.73,2.38,4.51,3.74,5.61h-52.4c.91-.79,3.74-3.04,3.74-4.12v-68.49h12.35c3.79,0,5.91-7.91,2.18-10.41-12.87-11.52-23.97-27.63-36.58-39.03-2.49-2.25-5.71-3.46-8.69-1.13l-39.21,41.62c-2.76,2.21.26,8.95,2.95,8.95h12.35v20.58c0,1.78,3.15,5.16,5.04,5.5,4.66.84,6.54-3.91,6.92-7.76.51-5.11.66-19.63-.32-24.36-.29-1.39-1.13-3.58-2.36-4.38l-6.28-1.93,24.32-25.82,25.07,26.56c-2.48-.11-8.98,1.24-8.98,4.49v68.49h-31.44v-18.34c0-.43-1.72-4-2.26-4.47-3.73-3.26-8.42-.53-9.38,4.06s-.93,24.55,1.13,27.95c.48.79,1.95.95,2.28,2.03ZM248.74,64.97c-77.77,5.96-120.85,95.63-76.06,160.2,40.33,58.15,126.08,59.03,167.4,1.5,50.79-70.73-4.98-168.32-91.34-161.7ZM123.68,109.81c-4.31.94-4.98,7.39-1.26,9.93,1.24.85,12.63,5.51,13.89,5.64,4.3.44,7.39-3.48,6.13-7.7-1.04-3.47-15.29-8.62-18.76-7.87ZM384.19,109.82c-1.89.29-11.87,4.25-13.32,5.42-4.87,3.93-1.51,10.7,4.08,10.13,1.63-.17,13.63-5.17,14.71-6.31,3.96-4.2.91-10.2-5.47-9.24ZM92.97,163.71c-5.38,2.66-4.74,10.06,1.39,11.03,5.37.85,28.95.83,34.35,0,6.21-.96,6.61-10.11,0-11.14l-35.73.11ZM381.91,163.72c-6.01,1.66-5.32,10.1.63,11.02,5.39.84,28.98.85,34.35,0,6.41-1.01,6.76-9.12.77-11.17l-35.75.14ZM121.11,226.97c2.99,3.71,14.12-1.1,17.78-3.11,6.49-3.57,3.89-11.1-1.87-10.94-1.7.05-12.22,3.97-13.81,4.98-3,1.91-4.53,6.04-2.09,9.07ZM390.14,226.97c2.44-3.03.91-7.16-2.09-9.07-1.6-1.01-12.12-4.93-13.81-4.98-5.77-.16-8.35,7.29-1.87,10.94,3.66,2.06,14.76,6.86,17.78,3.11Z"/>
  <path d="M332.73,448c-2.47-1.93-3.42-3.89-3.75-7.11-2.61-25.62,1.96-55.52,0-81.6.53-4.78,2.86-8.6,8.28-6.78,1,.34,2.95,2.22,2.95,3.04v81.22h32.19v-143.35c0-2.79,6.67-4.53,8.98-4.49l-23.61-25.05-1.85-.44-23.93,25.48c3.07.66,7.2.72,8.21,4.51l.06,42.68c-.98,7.58-11.27,4.64-11.27-.79v-34.81h-13.1c-2.73,0-4.68-8.08-1.12-10.1,12.91-11.98,23.66-26.37,36.28-38.58,7.1-6.87,11.58.96,16.88,6.36,10.61,10.8,20.37,22.58,31.01,33.36,2.48,2.15.76,8.95-2.21,8.95h-13.1v143.35c0,1.07-2.83,3.32-3.74,4.12h-47.16Z"/>
  <path d="M233.17,448c-1.36-1.11-3.74-3.89-3.74-5.61v-105.92h-12.35c-3.76,0-5.46-7.65-1.87-10.1l39.63-41.21c1.89-.61,3.21-.63,4.95.38,1.88,1.09,8.69,8.68,10.83,10.87,9.97,10.2,19.18,21.26,29.21,31.41,2,2.09.13,8.65-2.66,8.65h-13.1v107.42c0,1.07-2.83,3.32-3.74,4.12h-47.16ZM240.65,328.61v108.16h32.19v-107.42c0-3.24,6.5-4.6,8.98-4.49l-24.43-25.77-24.97,25.77c2.22.11,7.51,1.17,8.23,3.74Z"/>
  <path d="M133.61,448c-.32-1.09-1.79-1.24-2.28-2.03-2.07-3.4-2.05-23.53-1.13-27.95s5.65-7.32,9.38-4.06c.54.47,2.26,4.04,2.26,4.47v18.34h31.44v-68.49c0-3.24,6.5-4.6,8.98-4.49l-25.07-26.56-24.32,25.82,6.28,1.93c1.23.79,2.07,2.99,2.36,4.38.99,4.73.84,19.25.32,24.36-.39,3.84-2.26,8.6-6.92,7.76-1.89-.34-5.04-3.72-5.04-5.5v-20.58h-12.35c-2.69,0-5.71-6.74-2.95-8.95l39.21-41.62c2.97-2.33,6.2-1.11,8.69,1.13,12.61,11.39,23.71,27.51,36.58,39.03,3.73,2.5,1.61,10.41-2.18,10.41h-12.35v68.49c0,1.07-2.83,3.32-3.74,4.12h-47.16Z"/>
  <path d="M248.74,64.97c86.36-6.62,142.13,90.97,91.34,161.7-41.32,57.53-127.06,56.65-167.4-1.5-44.79-64.57-1.71-154.24,76.06-160.2ZM249.49,76.2c-69.26,5.43-106.95,84.6-67.83,142.23s122.87,51.75,155.2-7.7c34.66-63.75-15.5-140.16-87.37-134.53Z"/>
  <path d="M92.97,163.71l35.73-.11c6.61,1.03,6.21,10.18,0,11.14-5.39.84-28.98.85-34.35,0-6.13-.97-6.77-8.37-1.39-11.03Z"/>
  <path d="M381.91,163.72l35.75-.14c5.99,2.05,5.64,10.16-.77,11.17-5.37.85-28.95.83-34.35,0-5.95-.92-6.65-9.37-.63-11.02Z"/>
  <path d="M390.14,226.97c-3.02,3.75-14.12-1.05-17.78-3.11-6.47-3.65-3.9-11.1,1.87-10.94,1.7.05,12.22,3.97,13.81,4.98,3,1.91,4.53,6.04,2.09,9.07Z"/>
  <path d="M123.68,109.81c3.47-.75,17.72,4.4,18.76,7.87,1.26,4.22-1.83,8.14-6.13,7.7-1.26-.13-12.65-4.79-13.89-5.64-3.72-2.54-3.05-8.99,1.26-9.93Z"/>
  <path d="M384.19,109.82c6.38-.97,9.43,5.04,5.47,9.24-1.08,1.14-13.08,6.15-14.71,6.31-5.59.57-8.95-6.2-4.08-10.13,1.45-1.17,11.43-5.13,13.32-5.42Z"/>
  <path d="M121.11,226.97c-2.44-3.03-.91-7.16,2.09-9.07,1.6-1.01,12.12-4.93,13.81-4.98,5.77-.16,8.37,7.37,1.87,10.94-3.66,2.01-14.79,6.82-17.78,3.11Z"/>
  <path class="cls-1" d="M240.65,328.61c-.72-2.57-6.01-3.63-8.23-3.74l24.97-25.77,24.43,25.77c-2.48-.11-8.98,1.24-8.98,4.49v107.42h-32.19v-108.16Z"/>
  <path class="cls-1" d="M249.49,76.2c71.87-5.63,122.03,70.78,87.37,134.53-32.32,59.46-117.19,63.69-155.2,7.7s-1.43-136.81,67.83-142.23ZM248.73,93.41c-10.67,1.03-22.97,5.66-31.97,11.45-4.21,2.7-17.24,11.08-8.83,16.2,5.39,3.28,11.68-4.92,16.5-7.78,60.88-36.09,125.16,40.38,81.32,93.3-44.42,53.61-130.09,6.7-108.3-59.64,1.44-4.38,9.08-15.37,1.5-17.65-8.25-2.48-12.53,14.29-13.94,20.18-15.76,66.23,58.21,117.11,114.26,78.33,62.39-43.17,26.08-141.75-50.54-134.38ZM274.1,149.85c6.01-6.57-7.15-16.03-12.87-17.72-1.65-2.75,2.2-12.32-5.28-12.74-7.02-.39-6.42,8.67-6.41,13.37-17.97,4.81-20.66,31.18-2.35,38.11,8.51,3.22,22.54.93,20.36,14.72-1.35,8.54-13.39,9.8-19.68,6.31-5.21-2.89-4.68-11.13-11.88-9.44-11.86,2.78,5.45,23.17,13.58,21.59-.64,5.12.43,16.12,8.11,12.84,5.22-2.23,2.31-7.89,3.53-12.21,18.39-3.26,24.91-28.12,8.9-38.75-5.57-3.7-10.93-3.24-16.73-4.98-15.47-4.63-4.56-24.01,8.51-15.99,3.2,1.97,6.72,10.9,12.22,4.89Z"/>
  <path d="M248.73,93.41c76.62-7.37,112.93,91.21,50.54,134.38-56.05,38.78-130.01-12.09-114.26-78.33,1.4-5.9,5.69-22.66,13.94-20.18,7.58,2.28-.06,13.27-1.5,17.65-21.79,66.34,63.88,113.25,108.3,59.64,43.84-52.92-20.44-129.39-81.32-93.3-4.82,2.86-11.11,11.06-16.5,7.78-8.41-5.11,4.62-13.49,8.83-16.2,9-5.78,21.3-10.42,31.97-11.45Z"/>
  <path d="M274.1,149.85c-5.5,6.01-9.02-2.93-12.22-4.89-13.07-8.02-23.98,11.36-8.51,15.99,5.8,1.74,11.16,1.28,16.73,4.98,16.01,10.63,9.49,35.49-8.9,38.75-1.22,4.32,1.69,9.98-3.53,12.21-7.68,3.29-8.75-7.72-8.11-12.84-8.13,1.58-25.44-18.81-13.58-21.59,7.2-1.69,6.68,6.55,11.88,9.44,6.3,3.49,18.34,2.23,19.68-6.31,2.18-13.79-11.85-11.5-20.36-14.72-18.31-6.93-15.62-33.3,2.35-38.11,0-4.7-.61-13.76,6.41-13.37,7.48.42,3.63,9.99,5.28,12.74,5.72,1.69,18.89,11.15,12.87,17.72Z"/>
</svg>