<?xml version="1.0" encoding="UTF-8"?>
<svg id="Layer_1" xmlns="http://www.w3.org/2000/svg" version="1.1" viewBox="0 0 512 512">
  <!-- Generator: Adobe Illustrator 29.1.0, SVG Export Plug-In . SVG Version: 2.1.0 Build 142)  -->
  <defs>
    <style>
      .st0 {
        fill: #5d995d;
      }

      .st1 {
        fill: none;
        stroke: #3a443a;
        stroke-miterlimit: 10;
        stroke-width: 11.7px;
      }
    </style>
  </defs>
  <title>Opgeruid wonen</title>
  <path class="st0"
    d="M99.3,396.8c-2.8-1.5-5-3.6-6.6-6.4s-2.4-6-2.4-9.7.8-6.9,2.4-9.7c1.6-2.8,3.9-4.9,6.7-6.4,2.8-1.5,6-2.2,9.6-2.2s6.7.7,9.6,2.2c2.8,1.5,5,3.6,6.7,6.4,1.6,2.8,2.4,6,2.4,9.7s-.8,6.9-2.4,9.7c-1.6,2.8-3.9,4.9-6.7,6.4-2.8,1.5-6,2.2-9.6,2.2s-6.8-.7-9.6-2.2h0ZM113.3,386.2c1.2-1.3,1.7-3.1,1.7-5.6s-.6-4.3-1.7-5.5c-1.2-1.3-2.6-1.9-4.3-1.9s-3.1.6-4.3,1.9c-1.1,1.3-1.7,3.1-1.7,5.5s.6,4.3,1.7,5.6c1.1,1.3,2.5,1.9,4.3,1.9s3.2-.6,4.4-1.9h0Z" />
  <path class="st0"
    d="M149.3,363.9c1.8-1,3.9-1.5,6.3-1.5s5.4.7,7.7,2.2c2.3,1.5,4.1,3.6,5.5,6.4,1.3,2.8,2,6,2,9.7s-.7,6.9-2,9.7c-1.3,2.8-3.2,4.9-5.5,6.4-2.3,1.5-4.9,2.2-7.7,2.2s-4.5-.5-6.3-1.5c-1.8-1-3.1-2.3-4.2-3.9v22h-12.5v-52.7h12.5v5c1-1.7,2.4-3,4.1-3.9h0ZM156.3,375.2c-1.3-1.3-2.8-1.9-4.6-1.9s-3.4.7-4.6,2c-1.2,1.3-1.9,3.1-1.9,5.4s.6,4.2,1.9,5.5c1.2,1.3,2.8,2,4.6,2s3.4-.7,4.6-2c1.2-1.3,1.9-3.1,1.9-5.4s-.6-4.1-1.9-5.4h0Z" />
  <path class="st0"
    d="M195.5,363.9c1.8,1,3.2,2.3,4.2,3.9v-5h12.5v35.3c0,3.3-.6,6.4-1.9,9.1-1.3,2.7-3.3,4.8-5.9,6.5-2.7,1.6-6.1,2.4-10.2,2.4s-9.9-1.3-13.2-3.9c-3.3-2.6-5.2-6.1-5.7-10.6h12.3c.3,1.1.9,2,1.9,2.7,1,.6,2.3,1,3.9,1,4.2,0,6.4-2.4,6.4-7.1v-4.6c-1,1.7-2.4,3-4.2,3.9-1.8,1-3.9,1.5-6.3,1.5s-5.4-.7-7.7-2.2c-2.3-1.5-4.1-3.6-5.5-6.4-1.3-2.8-2-6-2-9.7s.7-6.9,2-9.7c1.3-2.8,3.2-4.9,5.5-6.4,2.3-1.5,4.9-2.2,7.7-2.2s4.5.5,6.3,1.5h0ZM197.8,375.3c-1.2-1.3-2.8-2-4.6-2s-3.4.6-4.6,1.9c-1.2,1.3-1.8,3.1-1.8,5.4s.6,4.1,1.8,5.4c1.2,1.3,2.8,2,4.6,2s3.4-.7,4.6-2c1.2-1.3,1.9-3.1,1.9-5.5s-.6-4.1-1.9-5.4h0Z" />
  <path class="st0"
    d="M253.1,383.2h-23.6c.1,2,.7,3.4,1.6,4.4s2.2,1.4,3.7,1.4,3.6-.9,4.4-2.8h13.3c-.6,2.5-1.6,4.7-3.2,6.6-1.6,1.9-3.6,3.4-6,4.5-2.4,1.1-5.1,1.7-8,1.7s-6.6-.7-9.4-2.2c-2.7-1.5-4.9-3.6-6.4-6.4-1.5-2.8-2.3-6-2.3-9.7s.8-7,2.3-9.7,3.7-4.8,6.4-6.3c2.7-1.5,5.9-2.2,9.4-2.2s6.6.7,9.3,2.2c2.7,1.4,4.8,3.5,6.4,6.2,1.5,2.7,2.3,5.9,2.3,9.5s0,2-.2,2.9h0ZM240.6,377.2c0-1.5-.5-2.7-1.5-3.6-1-.9-2.3-1.3-3.8-1.3s-2.8.4-3.8,1.2-1.6,2-1.9,3.7h11,0Z" />
  <path class="st0"
    d="M275.9,364.3c2-1.2,4.1-1.8,6.4-1.8v13.3h-3.5c-2.7,0-4.7.5-6,1.6-1.3,1.1-2,2.9-2,5.5v15.6h-12.5v-35.7h12.5v6.3c1.4-2,3.1-3.6,5.1-4.8h0Z" />
  <path class="st0"
    d="M323.3,362.9v35.7h-12.5v-5.1c-1.1,1.6-2.5,2.9-4.4,3.9-1.9,1-4,1.5-6.4,1.5-4.2,0-7.4-1.4-9.8-4.1-2.4-2.7-3.6-6.5-3.6-11.2v-20.7h12.4v19.1c0,2,.5,3.6,1.6,4.8,1.1,1.2,2.5,1.7,4.3,1.7s3.3-.6,4.3-1.7c1.1-1.2,1.6-2.8,1.6-4.8v-19.1h12.5,0Z" />
  <path class="st0" d="M342.9,362.9v35.7h-12.5v-35.7h12.5Z" />
  <path class="st0"
    d="M407.2,366.6c2.6,2.7,3.8,6.4,3.8,11.1v20.8h-12.5v-19.1c0-1.9-.5-3.4-1.6-4.5-1.1-1.1-2.5-1.6-4.3-1.6s-3.3.5-4.3,1.6c-1.1,1.1-1.6,2.5-1.6,4.5v19.1h-12.5v-19.1c0-1.9-.5-3.4-1.6-4.5-1-1.1-2.5-1.6-4.3-1.6s-3.3.5-4.4,1.6-1.6,2.5-1.6,4.5v19.1h-12.5v-35.7h12.5v4.7c1.1-1.5,2.5-2.7,4.3-3.7s3.8-1.4,6.1-1.4,5,.6,7,1.7c2.1,1.1,3.7,2.8,4.9,4.8,1.3-1.9,2.9-3.5,5-4.7,2.1-1.2,4.4-1.8,6.9-1.8,4.5,0,8,1.4,10.6,4.1h0s0,0,0,0Z" />
  <path class="st0"
    d="M417.8,371c1.3-2.8,3.2-4.9,5.5-6.4,2.3-1.5,4.9-2.2,7.8-2.2s4.3.5,6.1,1.4c1.8,1,3.2,2.3,4.2,3.9v-16.3h12.5v47h-12.5v-5c-1,1.7-2.4,3-4.1,3.9-1.8,1-3.9,1.5-6.3,1.5s-5.4-.7-7.7-2.2c-2.3-1.5-4.1-3.6-5.5-6.4-1.3-2.8-2-6-2-9.7s.7-6.9,2-9.7h0ZM439.6,375.3c-1.2-1.3-2.8-2-4.6-2s-3.4.6-4.6,1.9c-1.2,1.3-1.8,3.1-1.8,5.4s.6,4.1,1.8,5.4c1.2,1.3,2.8,2,4.6,2s3.4-.7,4.6-2c1.2-1.3,1.9-3.1,1.9-5.5s-.6-4.1-1.9-5.4h0Z" />
  <path class="st0"
    d="M290.4,419.5l-9.1,35.7h-14l-5-21.6-5.2,21.6h-13.9l-9-35.7h12.4l4,23.7,5.3-23.7h13.3l5.5,23.7,3.9-23.7h11.7Z" />
  <path class="st0"
    d="M301,453.3c-2.8-1.5-5-3.6-6.6-6.4-1.6-2.8-2.4-6-2.4-9.7s.8-6.9,2.4-9.7c1.6-2.8,3.9-4.9,6.7-6.4,2.8-1.5,6-2.2,9.6-2.2s6.7.7,9.6,2.2c2.8,1.5,5,3.6,6.7,6.4,1.6,2.8,2.4,6,2.4,9.7s-.8,6.9-2.4,9.7c-1.6,2.8-3.9,4.9-6.7,6.4-2.8,1.5-6,2.2-9.6,2.2s-6.8-.7-9.6-2.2h0ZM314.9,442.8c1.2-1.3,1.7-3.1,1.7-5.6s-.6-4.3-1.7-5.5c-1.2-1.3-2.6-1.9-4.3-1.9s-3.1.6-4.3,1.9c-1.1,1.3-1.7,3.1-1.7,5.5s.5,4.3,1.7,5.6c1.1,1.3,2.5,1.9,4.3,1.9s3.2-.6,4.4-1.9h0Z" />
  <path class="st0"
    d="M367.5,423.2c2.4,2.7,3.6,6.4,3.6,11.1v20.8h-12.5v-19.1c0-2-.5-3.6-1.6-4.8-1.1-1.2-2.5-1.7-4.3-1.7s-3.3.6-4.4,1.7c-1.1,1.2-1.6,2.8-1.6,4.8v19.1h-12.5v-35.7h12.5v5.1c1.1-1.6,2.6-2.9,4.5-3.9,1.9-1,4-1.5,6.4-1.5,4.1,0,7.4,1.4,9.8,4.1h0Z" />
  <path class="st0"
    d="M411.9,439.8h-23.6c.1,1.9.7,3.4,1.6,4.4s2.2,1.4,3.7,1.4,3.6-.9,4.5-2.8h13.3c-.6,2.5-1.6,4.7-3.2,6.6-1.6,1.9-3.6,3.4-6,4.5-2.4,1.1-5.1,1.7-8,1.7s-6.6-.7-9.4-2.2c-2.7-1.5-4.9-3.6-6.4-6.4-1.5-2.8-2.3-6-2.3-9.7s.8-7,2.3-9.7c1.5-2.7,3.7-4.8,6.4-6.3,2.7-1.5,5.9-2.2,9.4-2.2s6.6.7,9.3,2.2c2.7,1.4,4.8,3.5,6.4,6.2,1.5,2.7,2.3,5.9,2.3,9.5s0,1.9-.2,2.9h0ZM399.4,433.8c0-1.5-.5-2.7-1.5-3.6-1-.9-2.3-1.3-3.8-1.3s-2.8.4-3.8,1.2-1.6,2-1.9,3.7h11,0Z" />
  <path class="st0"
    d="M450.3,423.2c2.4,2.7,3.6,6.4,3.6,11.1v20.8h-12.5v-19.1c0-2-.5-3.6-1.6-4.8-1.1-1.2-2.5-1.7-4.3-1.7s-3.3.6-4.4,1.7c-1.1,1.2-1.6,2.8-1.6,4.8v19.1h-12.5v-35.7h12.5v5.1c1.1-1.6,2.6-2.9,4.5-3.9,1.9-1,4-1.5,6.4-1.5,4.1,0,7.4,1.4,9.8,4.1h0Z" />
  <path class="st1" d="M145.8,56.4h-27.4c-3.4,0-6.1,2.7-6.1,6.1l-1,86.3,40.7-24.7v-61.5c0-3.4-2.7-6.1-6.1-6.1h0Z" />
  <path class="st1"
    d="M219.1,448.8H88.3c-12.9,0-23.4-10.5-23.4-23.4v-201.1l181.2-116.1c7.1-4.6,16.3-4.5,23.4,0l178.2,116.1v104.3" />
  <path class="st1"
    d="M487.8,206l-215-140.1c-9-5.9-20.6-5.9-29.7-.1L24.3,206c-5.2,3.3-8.3,9.1-8.3,15.2v.2c0,14.3,15.8,22.9,27.8,15.2l199.2-127.7c9.1-5.8,20.7-5.8,29.7.1l195.3,127.2c12,7.8,27.9-.8,27.9-15.1h0c0-6.1-3.1-11.8-8.2-15.1h0Z" />
  <path class="st0"
    d="M336.3,351.5c-.3,0-.8,0-1.2-.4-7-5.9-10.9-12.6-11.8-20.6-.3-2.8,0-5.6,1.2-8.2,1.1-2.8,3.2-4.3,5.6-4.3s2.8.5,4.2,1.5c2.5,1.7,3.9,4.2,4.9,6.2l.4.9.3-.4c.5-.6.9-1,1.3-1.5,1-1,2.2-2,3.7-3.3.5-.4,1.2-.6,1.7-.8.8-.3,1.7-.4,2.4-.4,2.8,0,4.9,2,5.3,5.3.5,4.2-.4,8.4-2.9,12.8-3.1,5.5-7.8,9.8-14.3,13.2-.3.2-.7.2-.9.2h0Z" />
</svg>