<?xml version="1.0" encoding="UTF-8"?>
<svg id="Layer_1" xmlns="http://www.w3.org/2000/svg" version="1.1" viewBox="0 0 512 512">
  <!-- Generator: Adobe Illustrator 29.1.0, SVG Export Plug-In . SVG Version: 2.1.0 Build 142)  -->
  <defs>
    <style>
      .secondary {
        fill: #3a443a;
      }

      .primary {
        fill: #5d995d;
      }
    </style>
  </defs>
  <path class="primary"
    d="M99.3,396.8c-2.8-1.5-5-3.6-6.6-6.4s-2.4-6-2.4-9.7.8-6.9,2.4-9.7c1.6-2.8,3.9-4.9,6.7-6.4,2.8-1.5,6-2.2,9.6-2.2s6.7.7,9.6,2.2c2.8,1.5,5,3.6,6.7,6.4,1.6,2.8,2.4,6,2.4,9.7s-.8,6.9-2.4,9.7c-1.6,2.8-3.9,4.9-6.7,6.4-2.8,1.5-6,2.2-9.6,2.2s-6.8-.7-9.6-2.2h0ZM113.3,386.2c1.2-1.3,1.7-3.1,1.7-5.6s-.6-4.3-1.7-5.5c-1.2-1.3-2.6-1.9-4.3-1.9s-3.1.6-4.3,1.9c-1.1,1.3-1.7,3.1-1.7,5.5s.6,4.3,1.7,5.6c1.1,1.3,2.5,1.9,4.3,1.9s3.2-.6,4.4-1.9h0Z" />
  <path class="primary"
    d="M149.3,363.9c1.8-1,3.9-1.5,6.3-1.5s5.4.7,7.7,2.2,4.1,3.6,5.5,6.4c1.3,2.8,2,6,2,9.7s-.7,6.9-2,9.7c-1.3,2.8-3.2,4.9-5.5,6.4s-4.9,2.2-7.7,2.2-4.5-.5-6.3-1.5-3.1-2.3-4.2-3.9v22h-12.5v-52.7h12.5v5c1-1.7,2.4-3,4.1-3.9h0ZM156.3,375.2c-1.3-1.3-2.8-1.9-4.6-1.9s-3.4.7-4.6,2c-1.2,1.3-1.9,3.1-1.9,5.4s.6,4.2,1.9,5.5c1.2,1.3,2.8,2,4.6,2s3.4-.7,4.6-2c1.2-1.3,1.9-3.1,1.9-5.4s-.6-4.1-1.9-5.4h0v-.2Z" />
  <path class="primary"
    d="M195.5,363.9c1.8,1,3.2,2.3,4.2,3.9v-5h12.5v35.3c0,3.3-.6,6.4-1.9,9.1-1.3,2.7-3.3,4.8-5.9,6.5-2.7,1.6-6.1,2.4-10.2,2.4s-9.9-1.3-13.2-3.9-5.2-6.1-5.7-10.6h12.3c.3,1.1.9,2,1.9,2.7,1,.6,2.3,1,3.9,1,4.2,0,6.4-2.4,6.4-7.1v-4.6c-1,1.7-2.4,3-4.2,3.9-1.8,1-3.9,1.5-6.3,1.5s-5.4-.7-7.7-2.2-4.1-3.6-5.5-6.4c-1.3-2.8-2-6-2-9.7s.7-6.9,2-9.7c1.3-2.8,3.2-4.9,5.5-6.4s4.9-2.2,7.7-2.2,4.5.5,6.3,1.5h-.1ZM197.8,375.3c-1.2-1.3-2.8-2-4.6-2s-3.4.6-4.6,1.9c-1.2,1.3-1.8,3.1-1.8,5.4s.6,4.1,1.8,5.4,2.8,2,4.6,2,3.4-.7,4.6-2c1.2-1.3,1.9-3.1,1.9-5.5s-.6-4.1-1.9-5.4h0v.2Z" />
  <path class="primary"
    d="M253.1,383.2h-23.6c.1,2,.7,3.4,1.6,4.4s2.2,1.4,3.7,1.4,3.6-.9,4.4-2.8h13.3c-.6,2.5-1.6,4.7-3.2,6.6-1.6,1.9-3.6,3.4-6,4.5s-5.1,1.7-8,1.7-6.6-.7-9.4-2.2c-2.7-1.5-4.9-3.6-6.4-6.4s-2.3-6-2.3-9.7.8-7,2.3-9.7,3.7-4.8,6.4-6.3,5.9-2.2,9.4-2.2,6.6.7,9.3,2.2c2.7,1.4,4.8,3.5,6.4,6.2,1.5,2.7,2.3,5.9,2.3,9.5s0,2-.2,2.9h0ZM240.6,377.2c0-1.5-.5-2.7-1.5-3.6s-2.3-1.3-3.8-1.3-2.8.4-3.8,1.2-1.6,2-1.9,3.7h11Z" />
  <path class="primary"
    d="M275.9,364.3c2-1.2,4.1-1.8,6.4-1.8v13.3h-3.5c-2.7,0-4.7.5-6,1.6s-2,2.9-2,5.5v15.6h-12.5v-35.7h12.5v6.3c1.4-2,3.1-3.6,5.1-4.8h0Z" />
  <path class="primary"
    d="M323.3,362.9v35.7h-12.5v-5.1c-1.1,1.6-2.5,2.9-4.4,3.9s-4,1.5-6.4,1.5c-4.2,0-7.4-1.4-9.8-4.1s-3.6-6.5-3.6-11.2v-20.7h12.4v19.1c0,2,.5,3.6,1.6,4.8,1.1,1.2,2.5,1.7,4.3,1.7s3.3-.6,4.3-1.7c1.1-1.2,1.6-2.8,1.6-4.8v-19.1h12.5Z" />
  <path class="primary" d="M342.9,362.9v35.7h-12.5v-35.7h12.5Z" />
  <path class="primary"
    d="M407.2,366.6c2.6,2.7,3.8,6.4,3.8,11.1v20.8h-12.5v-19.1c0-1.9-.5-3.4-1.6-4.5s-2.5-1.6-4.3-1.6-3.3.5-4.3,1.6c-1.1,1.1-1.6,2.5-1.6,4.5v19.1h-12.5v-19.1c0-1.9-.5-3.4-1.6-4.5-1-1.1-2.5-1.6-4.3-1.6s-3.3.5-4.4,1.6-1.6,2.5-1.6,4.5v19.1h-12.5v-35.7h12.5v4.7c1.1-1.5,2.5-2.7,4.3-3.7s3.8-1.4,6.1-1.4,5,.6,7,1.7c2.1,1.1,3.7,2.8,4.9,4.8,1.3-1.9,2.9-3.5,5-4.7s4.4-1.8,6.9-1.8c4.5,0,8,1.4,10.6,4.1h.1Z" />
  <path class="primary"
    d="M417.8,371c1.3-2.8,3.2-4.9,5.5-6.4s4.9-2.2,7.8-2.2,4.3.5,6.1,1.4c1.8,1,3.2,2.3,4.2,3.9v-16.3h12.5v47h-12.5v-5c-1,1.7-2.4,3-4.1,3.9-1.8,1-3.9,1.5-6.3,1.5s-5.4-.7-7.7-2.2c-2.3-1.5-4.1-3.6-5.5-6.4-1.3-2.8-2-6-2-9.7s.7-6.9,2-9.7h0v.2h0ZM439.6,375.3c-1.2-1.3-2.8-2-4.6-2s-3.4.6-4.6,1.9-1.8,3.1-1.8,5.4.6,4.1,1.8,5.4c1.2,1.3,2.8,2,4.6,2s3.4-.7,4.6-2,1.9-3.1,1.9-5.5-.6-4.1-1.9-5.4h0v.2Z" />
  <path class="primary"
    d="M290.4,419.5l-9.1,35.7h-14l-5-21.6-5.2,21.6h-13.9l-9-35.7h12.4l4,23.7,5.3-23.7h13.3l5.5,23.7,3.9-23.7h11.8Z" />
  <path class="primary"
    d="M301,453.3c-2.8-1.5-5-3.6-6.6-6.4s-2.4-6-2.4-9.7.8-6.9,2.4-9.7c1.6-2.8,3.9-4.9,6.7-6.4,2.8-1.5,6-2.2,9.6-2.2s6.7.7,9.6,2.2c2.8,1.5,5,3.6,6.7,6.4,1.6,2.8,2.4,6,2.4,9.7s-.8,6.9-2.4,9.7c-1.6,2.8-3.9,4.9-6.7,6.4-2.8,1.5-6,2.2-9.6,2.2s-6.8-.7-9.6-2.2h-.1ZM314.9,442.8c1.2-1.3,1.7-3.1,1.7-5.6s-.6-4.3-1.7-5.5c-1.2-1.3-2.6-1.9-4.3-1.9s-3.1.6-4.3,1.9c-1.1,1.3-1.7,3.1-1.7,5.5s.5,4.3,1.7,5.6c1.1,1.3,2.5,1.9,4.3,1.9s3.2-.6,4.4-1.9h-.1Z" />
  <path class="primary"
    d="M367.5,423.2c2.4,2.7,3.6,6.4,3.6,11.1v20.8h-12.5v-19.1c0-2-.5-3.6-1.6-4.8-1.1-1.2-2.5-1.7-4.3-1.7s-3.3.6-4.4,1.7c-1.1,1.2-1.6,2.8-1.6,4.8v19.1h-12.5v-35.7h12.5v5.1c1.1-1.6,2.6-2.9,4.5-3.9s4-1.5,6.4-1.5c4.1,0,7.4,1.4,9.8,4.1h.1Z" />
  <path class="primary"
    d="M411.9,439.8h-23.6c.1,1.9.7,3.4,1.6,4.4s2.2,1.4,3.7,1.4,3.6-.9,4.5-2.8h13.3c-.6,2.5-1.6,4.7-3.2,6.6s-3.6,3.4-6,4.5-5.1,1.7-8,1.7-6.6-.7-9.4-2.2c-2.7-1.5-4.9-3.6-6.4-6.4s-2.3-6-2.3-9.7.8-7,2.3-9.7,3.7-4.8,6.4-6.3c2.7-1.5,5.9-2.2,9.4-2.2s6.6.7,9.3,2.2c2.7,1.4,4.8,3.5,6.4,6.2,1.5,2.7,2.3,5.9,2.3,9.5s0,1.9-.2,2.9h0ZM399.4,433.8c0-1.5-.5-2.7-1.5-3.6s-2.3-1.3-3.8-1.3-2.8.4-3.8,1.2-1.6,2-1.9,3.7h11,0Z" />
  <path class="primary"
    d="M450.3,423.2c2.4,2.7,3.6,6.4,3.6,11.1v20.8h-12.5v-19.1c0-2-.5-3.6-1.6-4.8-1.1-1.2-2.5-1.7-4.3-1.7s-3.3.6-4.4,1.7c-1.1,1.2-1.6,2.8-1.6,4.8v19.1h-12.5v-35.7h12.5v5.1c1.1-1.6,2.6-2.9,4.5-3.9s4-1.5,6.4-1.5c4.1,0,7.4,1.4,9.8,4.1h.1Z" />
  <path class="primary"
    d="M336.3,351.5c-.3,0-.8,0-1.2-.4-7-5.9-10.9-12.6-11.8-20.6-.3-2.8,0-5.6,1.2-8.2,1.1-2.8,3.2-4.3,5.6-4.3s2.8.5,4.2,1.5c2.5,1.7,3.9,4.2,4.9,6.2l.4.9.3-.4c.5-.6.9-1,1.3-1.5,1-1,2.2-2,3.7-3.3.5-.4,1.2-.6,1.7-.8.8-.3,1.7-.4,2.4-.4,2.8,0,4.9,2,5.3,5.3.5,4.2-.4,8.4-2.9,12.8-3.1,5.5-7.8,9.8-14.3,13.2-.3.2-.7.2-.9.2h0v-.2h0Z" />
  <path class="secondary"
    d="M491.1,201.5L276.8,62c-11-7.2-25.3-7.2-36.4-.1l-81.2,52v-50c0-6.8-5.6-12.4-12.4-12.4h-27.3c-6.7,0-12.3,5.5-12.4,12.2l-1,84.1-83.8,53.7c-7,4.5-11.2,12.1-11.2,20.4v.2c0,9,4.7,17,12.6,21.3,3.7,2,7.7,3,11.7,3,4.5,0,9-1.3,13.1-3.9l11.3-7.2v190c0,16.3,13.3,29.6,29.6,29.6h130.4v-12.6H89.5c-9.4,0-17.1-7.7-17.1-17.1v-197l177.7-113.9c5-3.2,11.5-3.2,16.5,0l174.7,113.8v100.5h12.6v-93.7l10.7,6.9c7.6,4.9,16.9,5.3,24.8,1,8-4.3,12.7-12.3,12.7-21.4s-4.1-15.9-11-20.4ZM119.7,64h26.9v57.6l-27.8,16.9.9-74.5ZM483.5,232.2c-3.8,2.1-8.3,1.9-12-.5l-194.6-126.8c-11-7.2-25.3-7.2-36.4-.1L41.9,232.1c-3.7,2.4-8.1,2.5-12,.4-3.8-2.1-6.1-5.9-6.1-10.3v-.2c0-4,2-7.7,5.4-9.9L247.2,72.4c3.4-2.2,7.4-3.3,11.3-3.3s8,1.1,11.5,3.4l214.3,139.6c3.3,2.2,5.3,5.9,5.3,9.8s-2.3,8.2-6.1,10.3Z" />
</svg>